<?xml version="1.0" encoding="utf-8"?>
<svg viewBox="239.25 -84.072 629.442 677.386" xmlns="http://www.w3.org/2000/svg">
  <path style="fill:#ec6c3c; stroke:none;" d="M347 26L348 27L347 26M361.333 26.6667C361.278 26.7222 361.222 27.7778 361.667 27.3333C361.722 27.2776 361.778 26.2223 361.333 26.6667M274 27L274 30C274.696 28.4464 274.696 28.5537 274 27M440 27L441 28L440 27z" transform="matrix(1, 0, 0, 1, 203.249985, -110.071571)"/>
  <path style="fill:#221e1f; stroke:none;" d="M 261 517 C 233.566 496.143 190.731 504.581 170.924 532.001 C 152.61 557.354 153.975 594.177 176.09 616.961 C 183.207 624.292 192.406 630.022 202 633.409 C 212.412 637.084 224.168 638.011 235 636 C 233.355 649.018 231.513 661.968 230.05 675 C 229.514 679.777 227.358 686.016 233 688 C 232.841 691.706 231.301 696.408 233.897 699.57 C 240.397 707.488 251.708 702.001 252 693 C 260.124 692.367 258.327 682.441 259.05 676 C 260.405 663.936 262.637 651.981 264.562 640 C 265.458 634.423 265.586 628.39 267.475 623.015 C 269.225 618.033 274.214 614.174 277.334 610 C 281.616 604.271 284.682 597.78 286.91 591 C 290.187 581.031 290.313 570.26 288.83 560 C 287.845 553.186 284.695 548.001 286.375 541 C 293.432 511.598 303.456 482.202 314.26 454 C 320.153 438.617 327.664 422.854 332 407 L 334 407 L 337 416 C 343.199 415.847 344.954 420.871 346.939 426 C 349.256 431.986 351.709 437.944 353.834 444 C 355.133 447.703 356.264 452.668 358.727 455.772 C 360.518 458.028 367.048 460.625 367.408 455.772 C 367.698 451.862 363.754 447.188 361.911 444 C 359.852 440.438 358.284 436.633 356.36 433 C 353.401 427.417 350.188 421.941 348 416 C 352.356 418.337 353.571 422.907 356.062 427 C 360.118 433.666 364.389 440.165 369.051 446.424 C 371.306 449.453 373.543 453.207 377.015 454.971 C 380.874 456.933 385.89 455.176 390 455 C 388.226 448.11 382.607 442.045 378.911 436 C 376.249 431.646 365.839 415.001 378.005 415.548 C 379.671 415.623 381.373 416.06 383 416.404 C 385.064 416.84 387.047 417.363 389 418.171 C 396.866 421.422 404.049 426.119 410.421 431.748 C 413.926 434.846 417.067 439.837 421.326 441.91 C 425.103 443.749 428.622 441.698 432 440 C 429.923 430.97 423.084 425.997 423 416 C 432.07 420.23 436.632 429.74 447 432 C 445.534 426.737 440.203 422.415 436.989 418 C 429.39 407.559 421.775 397.632 416 386 C 430.358 382.284 447.094 384.663 458.741 373.622 C 460.66 371.803 461.901 369.427 464.129 367.923 C 466.334 366.434 469.477 366.044 470.957 363.606 C 474.013 358.572 468.059 354.827 464 354 C 466.926 348.926 471.29 347.169 477 347 C 474.044 352.635 477.061 360.603 484.715 358.485 C 487.741 357.648 490.197 355.182 493.001 353.833 C 495.87 352.453 499.199 352.151 501.829 350.272 C 506.276 347.096 510.03 341.372 513.244 337 C 517.598 331.076 524.231 324.264 509.981 321.205 C 502.222 326.814 514.566 326.891 508 324.035 C 508.936 325.984 509.392 328.55 511 330 C 509.562 331.652 508.146 333.3 506.794 335.025 C 505.328 336.896 503.846 339.923 501.688 341.079 C 498.68 342.689 498.962 338.607 499.708 336.995 C 502.583 330.776 507.427 327.536 509.973 321.202 C 506.329 323.192 505.202 324.655 502.83 328.039 C 501.547 329.869 500.159 332.822 497.792 333.427 C 495.784 333.941 492.952 332.462 491 332 C 492.14 328.861 494.65 325.433 494.558 322.004 C 494.446 317.856 490.199 314.381 486.21 316.362 C 480.759 319.068 479.007 327.652 474.482 331.721 C 470.944 334.904 462.261 338.188 457.891 340.31 C 458.206 340.365 456.74 341.12 458.501 341.158 C 462.629 341.248 469.006 336.183 473 336 L 473 342 C 464.236 342.254 460.013 349.383 452 351 C 453.104 348.129 456.899 343.719 458.513 341.145 C 458.74 340.783 457.794 340.606 458.02 340.238 C 454.653 342.377 451.946 346.102 451 350 C 445.514 350.113 440.014 350.99 435.001 353.324 C 431.498 354.955 428.55 357.716 424.91 359.012 C 419.533 360.926 413.573 360.965 408 362 C 406.544 356.243 404.309 352.692 398 354 C 399.804 349.836 403.084 346.445 404.362 342 C 406.788 333.563 404.281 323.349 402.6 315 C 401.915 311.595 401.507 307.177 398.581 304.858 C 395.488 302.407 390.689 303.002 387 303 C 386.56 295.658 390.94 290.069 394.601 284 C 401.093 273.237 408.003 262.729 414.55 252.004 C 445.221 201.762 484.463 154.537 526 113 C 540.376 98.624 554.988 84.697 570 71 C 573.212 68.07 583.96 61.453 581.824 56.144 C 580.055 51.747 573.509 52.064 570 53.537 C 561.05 57.294 553.267 65.356 546 71.58 C 513.765 99.186 483.691 130.024 456.295 162.421 C 434.533 188.155 413.885 214.481 394.424 242 C 389.113 249.51 383.468 257.13 378.731 265 C 376.227 269.158 373.288 276.382 369.366 279.292 C 365.889 281.872 359.283 277.622 355 278.548 C 351.403 279.325 348.573 281.911 345 282.698 C 339.602 283.886 334.29 282.701 329.326 285.916 C 325.95 288.102 324.611 291.89 321.737 294.531 C 318.061 297.908 313.201 299.453 310.688 304.09 C 309.156 306.917 309.096 310.217 307.441 313 C 302.839 320.738 297.26 326.254 299.598 336 C 301.632 344.477 304.911 353.626 309.664 360.961 C 312.344 365.095 317.368 368.464 316.153 374 C 314.822 380.062 311.004 386.468 308.247 392 C 304.016 400.49 299.994 409.199 296.449 418 C 283.275 450.707 271.9 483.489 261 517 Z" transform="matrix(1, 0, 0, 1, 203.249985, -110.071571)"/>
  <path style="fill:#ec6c3c; stroke:none;" d="M 355 229 C 352.538 223.737 350.679 218.121 347.1 213.456 C 337.475 200.912 324.243 191.414 320.529 175 C 317.918 163.464 322.116 152.342 322.91 141 C 323.754 128.952 319.378 115.139 313 105 C 311.26 110.889 311.764 117.543 309.287 123.714 C 302.196 141.384 289.816 157.292 289.04 177 C 288.553 189.391 292.978 201.149 295.764 213 C 298.663 225.331 299.398 237.633 297 250 C 290.325 239.135 281.392 231.098 269.83 225.503 C 254.627 218.146 237.567 216.565 223.001 207.467 C 211.775 200.455 202.034 191.698 193.09 182 C 189.03 177.598 186.046 171.212 181 168 C 181 196.241 185.447 222.725 208.424 241.702 C 224.586 255.05 251.775 260.761 259 283 C 239.049 285.369 224.153 276.026 206 269.681 C 192.931 265.113 178.686 263.286 165 264.87 C 156.451 265.86 148.702 267.87 140.944 271.532 C 137.757 273.037 134.813 273.858 133 277 C 149.204 277 163.193 279.443 176.999 288.673 C 185.525 294.373 191.094 302.662 198.754 309.219 C 208.724 317.754 220.654 322.976 233 327 C 229.431 328.907 225.839 328.92 222 330.043 C 216.348 331.697 211.286 334.372 206.41 337.63 C 196.709 344.113 190.421 354.027 178.985 358.099 C 160.235 364.775 140.318 362.16 121 362 C 119.23 361.891 116.036 361.558 117.488 361.809 L 120 364 C 137.796 382.312 165.72 392.684 191 387.664 C 199.804 385.916 208.485 381.022 217 378.139 C 224.222 375.694 232.392 375.222 240 376.185 C 242.958 376.56 247.407 377.696 248.172 381.108 C 248.765 383.752 246.651 386.733 245.42 388.91 C 241.176 396.41 233.28 401.657 226 405.91 C 213.338 413.309 199.384 416.718 186 422.334 C 173.379 427.63 161.577 435.118 152.039 445.004 C 146.254 451 137.508 460.221 136 472 C 135.831 473.323 136 476 136 476 C 145.59 469.227 152.665 459.688 164.039 455.268 C 175.048 450.989 186.608 452.915 198 451.83 C 213.749 450.331 228.481 445.282 244 443 C 243.844 461.875 234.85 478.265 225.349 493.961 C 223.034 497.785 218.952 501.917 216.942 505.925 C 234.005 504.494 234.778 506.732 242.985 508.249 C 248.967 509.355 261.484 517.009 261.063 517.009 C 261.063 517.009 264.339 506.301 264.339 508.098 C 266.341 504.779 267.612 496.684 268.835 493 C 271.72 484.305 274.349 475.6 277.529 467 C 286.547 442.608 296.877 418.967 306.737 394.934 C 302.882 394.934 298.622 385.303 296.833 382 C 289.775 368.969 284.376 352.211 287.333 337 C 288.83 329.303 290.504 321.992 294 315 C 308.527 285.945 341.581 270.345 373 275 C 386.702 254.673 400.507 234.554 414.981 214.754 C 423.355 203.298 433.76 190.165 442.771 178.735 C 440.464 172.825 443.334 168.098 442.826 162 C 441.714 148.642 438.933 135.354 441.322 122 C 442.946 112.918 447.622 104.458 451 96 C 432.86 99.804 421.764 121.492 416.913 138 C 414.119 147.506 413.344 157.224 408.043 165.83 C 401.179 176.975 388.105 183.397 378.917 192.461 C 368.287 202.946 361.325 215.651 355 229" transform="matrix(1, 0, 0, 1, 203.249985, -110.071571)"/>
  <path style="fill:red; stroke:none;" d="M448 98L449 99L448 98z" transform="matrix(1, 0, 0, 1, 203.249985, -110.071571)"/>
  <path style="fill:#ec6c3c; stroke:none;" d="M 541 144 C 540.8 168.212 526.082 197.14 505 209.649 C 498.052 213.772 489.919 217.692 482 219.471 C 475.832 220.857 469.241 220.379 463 221.666 C 451.896 223.956 440.668 227.705 429.441 228.804 C 418.046 245.796 403.435 265.21 394.352 284.415 C 394.352 284.415 395.226 284.949 397 286 C 414.903 293.937 426.109 315.96 429.985 334 C 431.502 341.058 432.503 350.505 429 357 C 436.204 353.211 442.746 350.355 451 350 C 452.363 346.55 453.783 343.822 456.54 341.356 L 458.126 340.271 L 459.324 339.725 C 460.463 339.319 461.727 338.671 461.727 338.671 C 466.426 336.402 469.481 335.524 473.674 332.981 C 478.159 330.261 480.405 324.208 483.239 320.054 C 484.935 317.568 486.626 315.768 488.423 315.768 L 490 316 C 498.72 319.887 504.941 317.753 514 318.015 C 525.554 318.35 536.393 324.448 547.961 320.15 C 556.455 316.995 562.5 309.323 570 304.475 C 579.29 298.471 593.026 295.455 604 296 C 602.203 293.054 600.089 290.57 597.482 288.283 C 595.502 286.546 593.384 285.045 590.999 283.912 C 575.419 276.507 563.418 288.837 548 288.996 C 532.62 289.154 520.619 281.342 506 278.372 C 487.721 274.658 471.083 278.621 454 285 C 467.231 262.673 493.197 260.806 512.714 246.304 C 539.027 226.754 547.351 195.476 545.961 164 C 545.666 157.328 543.839 150.634 543 144 L 541 144" transform="matrix(1, 0, 0, 1, 203.249985, -110.071571)"/>
  <path style="fill:#ec6c3c; stroke:none;" d="M452 167L453 168L452 167M460 167L461 168L460 167M476 167L477 168L476 167M459 168L460 169L459 168M475 168L476 169L475 168M450 169L451 170L450 169M458 169L459 170L458 169M468 169L469 170L468 169z" transform="matrix(1, 0, 0, 1, 203.249985, -110.071571)"/>
  <path style="fill:#ec6c3c; stroke:none;" d="M449 170L450 171L449 170M457 170L458 171L457 170M467 170L468 171L467 170M638 170C636.814 171.186 636.472 171.584 636 173C637.548 171.738 637.808 171.806 638 170z" transform="matrix(1, 0, 0, 1, 203.249985, -110.071571)"/>
  <path style="fill:#ec6c3c; stroke:none;" d="M640 170L641 171L640 170M448 171L449 172L448 171M466 171L467 172L466 171M473 171L474 172L473 171M641 172L642 173L641 172M471 173L472 174L471 173M634 173L635 174L634 173M454 174L455 175L454 174M470 174L471 175L470 174M633 174L634 175L633 174M445 175L446 176L445 175M453 175L454 176L453 175M643 175L644 176L643 175M444 176L445 177L444 176M452 176L453 177L452 176M462 176L463 177L462 176M630 176L631 177L630 176M443 177L444 178L443 177M468 177L469 178L468 177M629 177L630 178L629 177M644 177L645 178L644 177M467 178L468 179L467 178M628 178L629 179L628 178M450 179L451 180L450 179M460 179L461 180L460 179M466 179L467 180L466 179M645 179L646 180L645 179M449 180L450 181L449 180M459 180L460 181L459 180M646.333 180.667C646.278 180.722 646.222 181.778 646.667 181.333C646.722 181.278 646.778 180.222 646.333 180.667M448 181L449 182L448 181M458 181L459 182L458 181M465 181L466 182L465 181M624 181L625 182L624 181M457 182L458 183L457 182M623 182L624 183L623 182M645 182L646 183L645 182M644 183L645 184L644 183M462 184L463 185L462 184M620 184L621 185L620 184M642 184L643 185L642 184M445 185L446 186L445 185M455 185L456 186L455 185M619 185L620 186L619 185M640.667 185.333C640.222 185.778 641.278 185.722 641.333 185.667C641.778 185.222 640.722 185.278 640.667 185.333M444 186L445 187L444 186M454 186L455 187L454 186M639.333 186.667C639.278 186.722 639.222 187.778 639.667 187.333C639.722 187.278 639.778 186.222 639.333 186.667M460 187L461 188L460 187M616 187L617 188L616 187M648 187C649.248 187.685 649.548 187.749 651 188C649.752 187.315 649.452 187.251 648 187M459 188L460 189L459 188M614.667 188.333C614.222 188.778 615.278 188.722 615.333 188.667C615.778 188.222 614.722 188.278 614.667 188.333M647 188L648 189L647 188M442 189L443 190L442 189M452 189L453 190L452 189M644 189L645 190L644 189M651 189L652 190L651 189M441 190L442 191L441 190M451 190L452 191L451 190M612 190L613 191L612 190M440 191L441 192L440 191M457 191L458 192L457 191M611 191L612 192L611 191M652 191L653 192L652 191M449 192L450 193L449 192z" transform="matrix(1, 0, 0, 1, 203.249985, -110.071571)"/>
  <path style="fill:#ec6c3c; stroke:none;" d="M439 193L440 194L439 193M608 193L609 194L608 193M628 193L629 194L628 193M653 193L654 194L653 193M438 194L439 195L438 194M448 194L449 195L448 194M627 194L628 195L627 194M632 194L633 195L632 194M437 195L438 196L437 195M454 195L455 196L454 195M606 195L607 196L606 195M654 195L655 196L654 195M436 196L437 197L436 196M446 196L447 197L446 196M453 196L454 197L453 196M632 196L633 197L632 196M655 196L656 197L655 196M603 197L604 198L603 197M629 197L630 198L629 197M435 198L436 199L435 198M602 198L603 199L602 198M621 198L622 199L621 198M627 198L628 199L627 198M434 199L435 200L434 199M444 199L445 200L444 199M451 199L452 200L451 199M601 199L602 200L601 199M620 199L621 200L620 199M656 199L657 200L656 199M433 200L434 201L433 200M443 200L444 201L443 200M450 200L451 201L450 200M618 200L619 201L618 200M622 200L623 201L622 200M654 200L655 201L654 200M63 201L64 202L63 201z" transform="matrix(1, 0, 0, 1, 203.249985, -110.071571)"/>
  <path style="fill:#ec6c3c; stroke:none;" d="M400 262L401 263L400 262M58 263L59 264L58 263M664.667 263.333C664.222 263.778 665.278 263.722 665.333 263.667C665.778 263.222 664.722 263.278 664.667 263.333z" transform="matrix(1, 0, 0, 1, 203.249985, -110.071571)"/>
  <path style="fill:#ec6c3c; stroke:none;" d="M350 317L351 318L350 317M387 317L388 318L387 317M487 317L488 318L487 317z" transform="matrix(1, 0, 0, 1, 203.249985, -110.071571)"/>
  <path style="fill:#221e1f; stroke:none;" d="M512 320L513 321L512 320z" transform="matrix(1, 0, 0, 1, 203.249985, -110.071571)"/>
  <path style="fill:#ec6c3c; stroke:none;" d="M 499 336 L 500 337 L 499 336 M 505 336 L 506 337 L 505 336 M 513 336 C 509.738 340.77 505.711 346.953 500.91 350.272 C 498.231 352.125 494.895 352.433 492.004 353.833 C 489.04 355.269 486.331 358.287 482.911 358.519 C 480.323 358.695 478.536 358.409 476.952 355.808 C 475.325 351.929 476.017 350.276 476.233 349.062 L 476.96 346.972 C 468.969 347.267 466.105 350.483 463.891 354.013 L 465.378 354.387 C 466.523 354.816 465.872 354.544 467 355 C 468.664 355.921 468.895 356.077 470.212 357.284 C 471.947 359.303 471.848 360.661 471.358 362.882 C 470.613 363.684 470.934 364.266 468.862 365.504 L 464.314 367.596 C 460.008 370.138 459.222 375.749 451 378.065 C 448.441 378.786 449.208 380.262 442.233 381.717 C 435.5 383.432 424.942 383.774 416 386 C 416.249 386.196 416.168 386.761 417 388 C 423.546 399.867 431.268 411.575 439.154 421.985 C 441.757 425.421 445.216 428.065 447 432 C 437.299 428.965 432.362 418.628 423 416 C 423.028 426.236 428.696 431.002 432 440 C 429.234 440.98 426.117 442.942 423.093 442.19 C 418.608 441.074 415.359 435.465 412.13 432.511 C 405.583 426.523 398.213 421.564 390 418.171 C 387.135 416.987 383.976 416.192 380.926 415.526 C 380.926 415.526 375.633 413.988 372.926 416.997 C 370.568 422.62 373.166 427.033 376.001 432 C 380.388 439.686 386.617 446.853 390 455 C 386.585 455.07 382.275 456.426 379.001 455.357 C 375.545 454.229 373.188 450.903 371.043 448.17 C 366.266 442.08 351.399 415.731 348.044 415.824 C 347.855 415.502 348.263 419.187 354.873 432.061 C 354.873 432.061 364.977 447.486 366.663 453.956 C 368.053 459.293 361.94 458.496 359.43 455.768 C 356.271 452.335 355.023 446.32 353.495 442 C 350.397 433.239 346.975 424.399 343 416 C 340.594 416.802 336.507 413.397 336.507 413.397 C 336.507 413.397 332.548 412.667 331 411 C 325.345 419.506 322.8 430.503 319.192 440 C 311.141 461.189 303.738 482.34 297.138 504 C 294.701 511.999 292.291 520.019 289.809 528 C 288.417 532.475 286.378 537.247 286.344 542 C 286.248 555.537 298.221 573.876 310 580 C 308.084 565.24 303.676 553.196 306.321 538 C 308.229 527.038 313.899 520.175 318.958 510.715 C 323.103 502.965 325.564 493.422 328 485 C 330.126 489.803 330.697 495.043 332.76 499.83 C 339.88 516.352 348.539 531.512 348.985 550 C 349.242 560.659 348.427 572.493 346.537 583 C 345.042 591.308 342.225 599.735 345 608 C 350.955 604.747 355.85 599.146 360.384 594.169 C 373.739 579.511 381.992 562.17 381.992 542 C 381.992 527.6 377.668 513.382 377.039 499 C 376.711 491.49 378.846 484.439 379 477 C 383.041 486.577 382.576 497.95 386.039 507.961 C 394.461 532.302 419.521 553.598 440 557 C 441.519 557.467 441.251 557.349 442.354 557.732 C 444.355 558.427 446.783 558.454 445.597 558.454 L 441 554 C 437.893 548.942 433.99 544.246 431.269 538.985 C 421.336 519.776 415.497 497.733 417.09 476 C 417.646 468.413 420.185 461.284 422 454 C 426.992 457.744 429.427 463.279 433.329 468 C 437.886 473.513 443.616 478.019 449.285 482.329 C 456.97 488.172 465.892 492.138 473.961 497.366 C 490.021 507.772 504.643 522.091 512 540 C 513.227 544.871 513.965 545.205 515 539 C 518.104 520.385 515.766 497.769 503.818 482.17 C 491.455 466.028 474.51 453.705 461.925 437.579 C 457.555 431.98 452.261 425.791 450 419 C 462.841 428.113 474.402 436.852 489.285 442.704 C 507.19 449.743 526.499 451.69 544 459.911 C 557.805 466.396 567.224 476.906 579 486 C 578.81 477.883 575.29 470.353 572.252 462.961 C 564.257 443.504 550.231 427.732 530.999 418.486 C 518.535 412.493 506.129 407.006 494 400.305 C 485.351 395.526 475.646 388.994 471 380 C 484.118 386.173 500.392 382.144 514 380.222 C 517.659 379.706 527.285 377.122 528 382 C 530.891 378.781 532.539 375.987 537 375 C 535.213 369.75 545.574 367.587 544.97 362.177 L 542 357 C 541.223 355.446 543 354 543 354 C 544.08 352.559 549.715 358.14 547 365 C 554.043 364.11 566.407 363.017 565.424 374 C 565.145 377.121 563.185 380.148 562 383 C 572.284 387.811 584.026 393.235 595 396 C 592.454 367.704 557.408 350.853 534 342.695 C 527.208 340.328 519.263 339.506 513 336 Z" transform="matrix(1, 0, 0, 1, 203.249985, -110.071571)"/>
  <path style="fill:#ec6c3c; stroke:none;" d="M394 346L395 347L394 346M402 346L403 347L402 346M460 346L461 347L460 346M488 346L489 347L488 346M397 347L398 348L397 347M453 347L454 348L453 347M459 347L460 348L459 347z" transform="matrix(1, 0, 0, 1, 203.249985, -110.071571)"/>
  <path style="fill:#ec6c3c; stroke:none;" d="M305.333 352.667C305.278 352.722 305.222 353.778 305.667 353.333C305.722 353.278 305.778 352.222 305.333 352.667M332 352L333 353L332 352z" transform="matrix(1, 0, 0, 1, 203.249985, -110.071571)"/>
  <path style="fill:#ec6c3c; stroke:none;" d="M444 352L445 353L444 352z" transform="matrix(1, 0, 0, 1, 203.249985, -110.071571)"/>
  <path style="fill:#ec6c3c; stroke:none;" d="M456 352L457 353L456 352z" transform="matrix(1, 0, 0, 1, 203.249985, -110.071571)"/>
  <path style="fill:#221e1f; stroke:none;" d="M 543.54 353.226 C 543.969 354.412 547.195 353.545 547.406 355.133 C 548.421 357.252 548.031 362.092 543.527 366.355 C 548.184 370.389 549.316 372.137 551.644 374.863 L 547.658 379.149 C 544.814 379.996 542.135 378.536 540.868 380.079 C 542.561 381.141 547.04 382.52 549 383 C 550.101 380.688 553.682 376.726 553.12 374.09 C 552.643 371.855 549.143 370.776 549.63 368.225 C 550.577 363.275 559.372 365.906 561.381 368.419 C 563.601 371.195 561.85 374.393 560.3 376.999 C 556.584 383.249 553.268 372.692 546 384 C 545.493 388.945 547.188 393.577 552.535 394.719 C 558.69 395.625 558.829 388.862 560.435 385.996 C 563.401 380.704 567.899 374.363 564.427 368.214 C 561.07 362.266 552.488 363.981 547 365 C 548.682 362.089 549.444 357.055 548.352 354.875 C 547.591 353.355 545.438 353.259 543.54 353.226 Z" transform="matrix(1, 0, 0, 1, 203.249985, -110.071571)"/>
  <path style="fill:#fdf6f2; stroke:none;" d="M550 352L551 353L550 352z" transform="matrix(1, 0, 0, 1, 203.249985, -110.071571)"/>
  <path style="fill:#ec6c3c; stroke:none;" d="M327 353L328 354L327 353M330 353L331 354L330 353M388 353L389 354L388 353M404 353L405 354L404 353z" transform="matrix(1, 0, 0, 1, 203.249985, -110.071571)"/>
  <path style="fill:#ec6c3c; stroke:none;" d="M467 356L468 357L467 356z" transform="matrix(1, 0, 0, 1, 203.249985, -110.071571)"/>
  <path style="fill:#221e1f; stroke:none;" d="M 543.638 353.284 C 543.659 353.251 542.997 352.322 538.59 359.704 C 537.33 361.814 535.965 369.362 536.093 371 C 536.296 373.597 537.437 376.389 536.821 378.985 C 536.106 382.002 533.159 385.458 529.934 385.726 C 528.368 385.856 526.528 385.266 525 385 C 526.598 383.519 532.265 379.411 529.259 379.527 C 523.993 382.043 517.412 393.124 527.005 393.793 C 533.592 394.253 540.547 385.261 543 380 C 537.694 376.769 535.116 369.382 539.845 359.991 C 541.589 356.156 543.561 354.371 545.057 353.317 C 543.093 353.089 545.103 353.332 543.638 353.284 Z" transform="matrix(1, 0, 0, 1, 203.249985, -110.071571)"/>
  <path style="fill:#ec6c3c; stroke:none;" d="M466 364L467 365L466 364z" transform="matrix(1, 0, 0, 1, 203.249985, -110.071571)"/>
  <path style="fill:#ec6c3c; stroke:none;" d="M543 364L544 365L543 364M313 365L314 366L313 365z" transform="matrix(1, 0, 0, 1, 203.249985, -110.071571)"/>
  <path style="fill:#ec6c3c; stroke:none;" d="M435 369L436 370L435 369z" transform="matrix(1, 0, 0, 1, 203.249985, -110.071571)"/>
  <path style="fill:#fdf6f2; stroke:none;" d="M535 372L536 373L535 372z" transform="matrix(1, 0, 0, 1, 203.249985, -110.071571)"/>
  <path style="fill:#221e1f; stroke:none;" d="M 730.02 271.262 C 729.503 274.846 740.823 266.821 740.232 263.805 C 737.066 265.285 732.069 268.43 730.02 271.262 Z"/>
  <path style="fill:#fdf6f2; stroke:none;" d="M528 378L529 379L528 378z" transform="matrix(1, 0, 0, 1, 203.249985, -110.071571)"/>
  <path style="fill:#ec6c3c; stroke:none;" d="M 551 378 L 552 379 L 551 378" transform="matrix(1, 0, 0, 1, 203.249985, -110.071571)"/>
  <path style="fill:#ec6c3c; stroke:none;" d="M77 380L78 381L77 380M313 380L314 381L313 380z" transform="matrix(1, 0, 0, 1, 203.249985, -110.071571)"/>
  <path style="fill:#221e1f; stroke:none;" d="M528 380L529 381L528 380z" transform="matrix(1, 0, 0, 1, 203.249985, -110.071571)"/>
  <path style="fill:#ec6c3c; stroke:none;" d="M 553 387 L 554 388 L 553 387 M 559 387 L 560 388 L 559 387 M 36 388 L 37 389 L 36 388 M 85 388 L 86 389 L 85 388 Z" transform="matrix(1, 0, 0, 1, 203.249985, -110.071571)"/>
  <path style="fill:#ec6c3c; stroke:none;" d="M356 388L357 389L356 388M362 388L363 389L362 388M370 388L371 389L370 388M376 388L377 389L376 388M385 388L386 389L385 388M528 388L529 389L528 388M555 388L556 389L555 388z" transform="matrix(1, 0, 0, 1, 203.249985, -110.071571)"/>
  <path style="fill:#ec6c3c; stroke:none;" d="M348.333 416.667C348.278 416.722 348.222 417.778 348.667 417.333C348.722 417.278 348.778 416.222 348.333 416.667z" transform="matrix(1, 0, 0, 1, 203.249985, -110.071571)"/>
  <path style="fill:#ec6c3c; stroke:none;" d="M630.667 428.333C630.222 428.778 631.278 428.722 631.333 428.667C631.778 428.222 630.722 428.278 630.667 428.333z" transform="matrix(1, 0, 0, 1, 203.249985, -110.071571)"/>
  <path style="fill:#ec6c3c; stroke:none;" d="M635.667 428.333C635.222 428.778 636.278 428.722 636.333 428.667C636.778 428.222 635.722 428.278 635.667 428.333M303 429L304 430L303 429M316 429L317 430L316 429M354 429L355 430L354 429M628 429L629 430L628 429M640 429L641 430L640 429M626 430L627 431L626 430M642 430L643 431L642 430M355 431L356 432L355 431z" transform="matrix(1, 0, 0, 1, 203.249985, -110.071571)"/>
  <path style="fill:#fdf6f2; stroke:none;" d="M408 431L409 432L408 431z" transform="matrix(1, 0, 0, 1, 203.249985, -110.071571)"/>
  <path style="fill:#ec6c3c; stroke:none;" d="M644 431L645 432L644 431M646 432L647 433L646 432z" transform="matrix(1, 0, 0, 1, 203.249985, -110.071571)"/>
  <path style="fill:#fdf6f2; stroke:none;" d="M416 439L417 440L416 439z" transform="matrix(1, 0, 0, 1, 203.249985, -110.071571)"/>
  <path style="fill:#ec6c3c; stroke:none;" d="M132 511L133 512L132 511M196 511L197 512L196 511M204 511L205 512L204 511M583 511L584 512L583 511M607 511L608 512L607 511M637 511L638 512L637 511M74 512L75 513L74 512M77 512L78 513L77 512M124 512L125 513L124 512M262 512L263 513L262 512z" transform="matrix(1, 0, 0, 1, 203.249985, -110.071571)"/>
  <path style="fill:#221e1f; stroke:none;" d="M495 512L496 513L495 512z" transform="matrix(1, 0, 0, 1, 203.249985, -110.071571)"/>
  <path style="fill:#ec6c3c; stroke:none;" d="M596 576L597 577L596 576M173 577L174 578L173 577M239 577L240 578L239 577M248 577L249 578L248 577M265 577L266 578L265 577M513 577L514 578L513 577M529.333 577.667C529.278 577.722 529.222 578.778 529.667 578.333C529.722 578.278 529.778 577.222 529.333 577.667M534 577L535 578L534 577M568 577L569 578L568 577M167 578L168 579L167 578M247 578L248 579L247 578M569 578L570 579L569 578M594 578L595 579L594 578M158.333 579.667C158.278 579.722 158.222 580.778 158.667 580.333C158.722 580.278 158.778 579.222 158.333 579.667z" transform="matrix(1, 0, 0, 1, 203.249985, -110.071571)"/>
  <path style="fill:#fdf6f2; stroke:none;" d="M167 579L168 580L167 579z" transform="matrix(1, 0, 0, 1, 203.249985, -110.071571)"/>
  <path style="fill:#ec6c3c; stroke:none;" d="M 343.874 599.516 C 343.764 601.958 342.572 606.623 342 609 C 343.797 609 343.521 608.986 345 608 C 344.439 605.898 344.825 601.457 343.874 599.516 Z" transform="matrix(1, 0, 0, 1, 203.249985, -110.071571)"/>
  <path style="fill:#fdf6f2; stroke:none;" d="M244 693C243.883 695.73 243.501 698.314 243 701C247.737 700.015 249.252 697.666 250 693L244 693z" transform="matrix(1, 0, 0, 1, 203.249985, -110.071571)"/>
  <path style="fill:#fdf6f2; stroke:none;" d="M 541.817 381.817 C 542.318 385.964 543.501 386.762 548.225 385.706 C 547.901 381.207 544.938 379.364 541.817 381.817 Z" transform="matrix(1, 0, 0, 1, 84.727615, -119.252327)"/>
  <path style="fill:#fdf6f2; stroke:none;" d="M 579.212 176.319 L 587.212 180.319 C 596.687 160.284 610.866 141.466 623.495 123.318 C 653.524 80.169 687.033 39.51 724.212 2.319 C 738.374 -11.847 753.113 -25.344 768.137 -38.589 C 773.008 -42.884 781.844 -47.351 780.212 -54.681 C 772.085 -51.94 764.66 -44.352 758.212 -38.811 C 745.123 -27.562 732.413 -15.882 720.212 -3.681 C 682.489 34.042 648.887 74.36 617.328 117.319 C 608.698 129.066 600.569 141.122 592.608 153.32 C 587.936 160.477 581.815 168.149 579.212 176.319 Z"/>
  <path style="fill:#fdf6f2; stroke:none;" d="M 570.212 195.319 C 571.594 191.668 569.671 188.089 569.212 184.319 C 574.235 183.942 577.981 181.967 583.212 182.319 C 580.77 175.871 569.857 171.506 563.212 171.381 C 560.491 171.329 555.639 172.032 555.133 175.464 C 554.618 178.96 559.963 180.668 562.118 182.307 C 566.455 185.606 567.99 190.574 570.212 195.319 Z"/>
  <path style="fill:#fdf6f2; stroke:none;" d="M 506.212 231.319 C 508.598 225.143 502.452 219.392 510.212 215.319 C 510.384 220.713 509.017 226.06 510.212 231.319 L 512.212 231.319 L 513.212 228.319 C 514.764 230.806 516.08 234.16 519.27 234.827 C 524.225 235.865 536.614 229.112 536.46 223.409 C 536.302 217.556 527.622 218.52 525.45 214.176 C 523.972 211.222 525.909 209.603 528.212 208.319 C 530.313 214.825 536.05 217.988 542.212 220.319 C 544.116 217.099 545.919 215.107 549.212 213.319 L 549.212 211.319 L 545.212 210.319 L 545.212 208.319 C 548.064 207.036 549.677 206.04 551.212 203.319 C 547.182 202.3 536.3 197.498 543.212 193.319 C 544.555 197.855 549.912 202.336 555.042 200.534 C 557.412 199.702 559.062 197.499 561.247 196.312 C 563.844 194.901 565.573 194.86 567.212 192.319 L 560.212 193.319 C 561.104 191.38 561.614 190.8 563.212 189.319 C 557.932 184.36 550.275 183.231 545.212 178.319 L 552.212 178.319 L 552.212 175.319 C 545.869 175.319 539.535 174.548 534.305 178.852 C 531.468 181.187 529.747 184.493 527.028 186.929 C 523.578 190.019 518.923 191.574 516.302 195.608 C 514.399 198.538 515.157 202.103 513.482 205.034 C 510.131 210.895 503.528 214.722 503.698 222.319 C 503.768 225.439 505.14 228.443 506.212 231.319 Z"/>
  <path style="fill:#fdf6f2; stroke:none;" d="M 582.212 192.319 L 582.212 194.319 C 584.013 194.881 585.334 195.143 587.212 195.319 C 586.775 204.865 580.672 213.927 572.212 218.319 L 574.212 213.319 L 567.212 212.319 C 566.342 216.497 566.764 218.576 571.212 219.319 L 571.212 222.319 C 579.469 221.936 585.321 217.333 589.534 210.319 C 591.581 206.911 592.452 203.216 595.212 200.319 C 595.12 202.502 593.898 206.8 595.325 208.657 C 597.145 211.024 599.957 207.743 600.925 206.26 C 604.484 200.805 601.874 195.197 595.237 194.623 C 593.49 194.472 591.891 194.934 590.212 195.319 C 588.065 191.82 586.139 191.275 582.212 192.319 Z"/>
  <path style="fill:#fdf6f2; stroke:none;" d="M 549.212 210.319 L 553.212 211.319 C 554.198 209.84 554.212 210.116 554.212 208.319 C 551.426 207.861 550.757 207.95 549.212 210.319 Z"/>
  <path style="fill:#fdf6f2; stroke:none;" d="M 691.515 208.495 C 688.002 209.043 690.705 214.571 693.894 213.568 C 697.219 212.523 694.144 208.085 691.515 208.495 Z"/>
  <path style="fill:#fdf6f2; stroke:none;" d="M 603.212 210.319 C 599.86 211.998 596.967 213.078 593.212 213.319 C 596.139 218.606 604.487 216.482 603.212 210.319 Z"/>
  <path style="fill:#fdf6f2; stroke:none;" d="M 687.216 212.841 C 684.094 220.969 676.924 226.406 681.212 235.319 C 687.194 232.276 685.889 228.826 687.501 223.319 C 688.316 220.537 692.511 219.049 693.542 216.323 L 687.256 212.841 M 713.873 213.405 C 711.051 215.538 715.966 220.187 718.551 218.233 C 721.373 216.1 716.458 211.451 713.873 213.405 Z"/>
  <path style="fill:#fdf6f2; stroke:none;" d="M 710.212 215.319 C 708.901 217.3 707.653 219.308 706.396 221.324 L 703.836 225.318 C 703.105 226.559 699.868 234.808 703.769 234.156 C 708.677 233.336 715.462 227.388 716.728 221.614 C 716.523 220.665 711.613 214.94 710.212 215.319 Z"/>
  <path style="fill:#fdf6f2; stroke:none;" d="M 594.212 242.319 C 592.91 251.048 584.089 250.945 580.212 257.319 C 586.085 256.524 593.822 254.49 597.304 249.214 C 598.978 246.677 598.319 244.06 599.116 241.319 C 599.988 238.317 602.365 235.962 603.933 233.319 C 605.312 230.994 610.314 219.226 605.003 218.24 C 603.18 217.902 602.091 219.873 601.904 221.378 C 601.285 226.354 603.889 229.705 599.909 234.186 C 596.346 238.196 590.298 239.357 585.212 240.03 C 582.57 240.379 578.863 239.834 576.82 241.922 C 573.459 245.357 577.511 249.153 581.217 248.997 C 586.111 248.792 590.322 244.858 594.212 242.319 Z"/>
  <path style="fill:#fdf6f2; stroke:none;" d="M 550.212 233.319 C 556.266 233.177 560.884 231.744 562.212 225.319 C 557.905 226.771 552.894 229.61 550.212 233.319 Z"/>
  <path style="fill:#fdf6f2; stroke:none;" d="M 655.301 241.319 C 664.111 239.271 665.665 233.435 676.161 232.433 L 676.212 226.319 C 667.242 226.711 657.185 231.982 655.301 241.319 Z"/>
  <path style="fill:#fdf6f2; stroke:none;" d="M 683.212 238.319 L 689.212 240.319 C 690.93 237.896 695.05 234.613 695.009 231.471 C 694.975 228.865 692.119 228.952 690.493 229.981 C 687.513 231.867 685.187 235.482 683.212 238.319 Z"/>
  <path style="fill:#fdf6f2; stroke:none;" d="M 540.212 236.319 C 537.026 238.929 534.282 240.582 530.212 241.319 C 530.212 243.116 530.226 242.84 531.212 244.319 C 535.134 243.186 541.238 241.265 540.212 236.319 Z"/>
  <path style="fill:#fdf6f2; stroke:none;" d="M 562.212 236.319 C 565.43 241.412 567.54 245.21 566.212 251.319 C 573.455 246.888 569.77 237.489 562.212 236.319 Z"/>
  <path style="fill:#fdf6f2; stroke:none;" d="M 681.212 240.319 C 680.816 244.889 682.881 245.988 687.212 246.319 C 686.554 242.489 684.842 241.432 681.212 240.319 Z"/>
  <path style="fill:#fdf6f2; stroke:none;" d="M 625.212 259.319 C 631.059 257.682 634.947 252.594 640.212 249.668 C 646.306 246.28 653.385 245.858 660.212 245.319 C 657.638 241.349 652.524 242.065 648.212 242.759 C 638.918 244.255 628.366 250.044 625.212 259.319 Z"/>
  <path style="fill:#fdf6f2; stroke:none;" d="M 749.273 271.608 L 751.159 269.1 L 755.31 265.128 C 753.478 261.851 751.097 259.571 747.728 257.319 C 747.668 254.832 751.846 251.692 751.989 249.516 C 752.429 242.817 749.191 244.587 747.765 243.58 C 741.623 246.582 740.584 254.501 739.925 261.16 C 740.68 266.101 744.05 271.375 749.273 271.608 Z"/>
  <path style="fill:#fdf6f2; stroke:none;" d="M 667.212 246.319 C 667.128 247.197 666.849 248.494 666.976 249.436 C 667.93 256.526 675.923 252.22 670.143 247.348 C 669.326 246.659 668.162 246.601 667.212 246.319 Z"/>
  <path style="fill:#fdf6f2; stroke:none;" d="M 606.212 247.319 C 601.384 253.54 595.194 256.744 588.212 260.064 C 585.506 261.35 579.974 262.387 578.295 265.021 C 575.975 268.66 582.283 277.386 585.212 279.319 L 584.212 271.319 C 587.042 275.423 588.804 280.122 591.561 284.26 C 592.702 285.973 594.479 288.205 596.812 287.147 C 601.921 284.831 601.143 277.217 607.212 275.319 C 604.961 271.907 602.737 267.246 606.529 263.918 C 608.226 262.428 611.676 262.449 612.399 260.002 C 613.491 256.302 609.296 250.812 608.212 247.319 L 606.212 247.319 Z"/>
  <path style="fill:#fdf6f2; stroke:none;" d="M 651.212 253.319 L 665.212 252.319 L 665.212 247.319 C 659.898 247.429 652.304 247.032 651.212 253.319 Z"/>
  <path style="fill:#fdf6f2; stroke:none;" d="M 615.212 253.319 C 617.403 261.23 622.109 257.487 625.212 252.319 C 621.757 252.329 618.58 252.517 615.212 253.319 Z"/>
  <path style="fill:#fdf6f2; stroke:none;" d="M 647.212 253.319 L 648.212 257.319 C 648.963 255.273 648.868 254.723 647.212 253.319 Z"/>
  <path style="fill:#fdf6f2; stroke:none;" d="M 637.212 256.319 C 638.779 259.902 640.295 261.661 644.212 262.319 C 642.735 260.939 640.529 259.869 642.212 258.319 C 640.964 257.634 640.664 257.57 639.212 257.319 L 642.212 255.319 C 640.072 254.909 639.25 255.351 637.212 256.319 Z"/>
  <path style="fill:#fdf6f2; stroke:none;" d="M 523.212 255.319 C 524.192 264.823 529.062 263.271 536.158 266.057 C 538.477 266.967 540.156 268.998 542.212 270.319 C 543.827 260.192 554.36 267.944 559.184 261.618 C 560.489 259.906 560.188 257.328 560.212 255.319 C 549.413 255.327 534.195 265.797 526.212 255.319 L 523.212 255.319 Z"/>
  <path style="fill:#fdf6f2; stroke:none;" d="M 749.897 257.333 C 751.224 258.927 755.213 261.727 755.914 263.696 C 757.136 267.127 752.618 272.311 751.212 275.319 C 756.497 273.632 760.527 278.51 760.527 278.51 C 762.67 272.102 767.29 269.402 767.06 262.173 C 766.752 252.505 754.007 256.155 749.897 257.333 Z"/>
  <path style="fill:#fdf6f2; stroke:none;" d="M 607.212 269.319 C 616.349 269.319 632.215 270.873 636.212 260.319 C 630.541 259.338 625.737 263.013 620.212 263.991 C 616.873 264.582 612.664 263.647 609.53 264.998 C 607.574 265.841 607.519 267.483 607.212 269.319 Z"/>
  <path style="fill:#fdf6f2; stroke:none;" d="M 645.212 261.319 C 646.792 260.635 646.989 260.514 648.212 259.319 C 646.632 260.003 646.435 260.124 645.212 261.319 Z"/>
  <path style="fill:#fdf6f2; stroke:none;" d="M 639.212 268.319 C 645.859 267.776 651.504 266.156 655.212 260.319 C 650.373 260.952 640.915 263.471 639.212 268.319 Z"/>
  <path style="fill:#fdf6f2; stroke:none;" d="M 727.966 275.486 C 727.966 275.486 732.862 275.615 734.612 281.449 C 734.612 281.449 741.334 278.221 744.166 271.188 L 740.212 265.319 C 735.589 267.475 731.742 270.716 727.966 275.486 Z"/>
  <path style="fill:#fdf6f2; stroke:none;" d="M 528.212 269.319 C 522.096 284.476 514.842 299.189 508.664 314.319 C 501.023 333.032 494.712 352.212 488.209 371.319 C 484.938 380.929 482.035 390.584 479.177 400.319 C 477.913 404.621 474.987 410.712 475.735 415.23 C 476.491 419.79 481.224 424.117 483.212 428.319 C 486.297 423.881 486.881 417.619 488.575 412.489 C 492.194 401.53 495.46 390.412 498.639 379.319 C 507.186 349.504 520.088 321.301 530.845 292.319 C 532.832 286.965 528.361 283.35 529.193 278.334 C 529.692 275.329 532.814 272.959 534.212 270.319 L 528.212 269.319 Z"/>
  <path style="fill:#fdf6f2; stroke:none;" d="M 571.212 270.319 C 570.204 277.057 579.725 292.004 587.212 290.319 C 584.513 283.202 578.173 273.636 571.212 270.319 Z"/>
  <path style="fill:#fdf6f2; stroke:none;" d="M 750.212 277.319 C 751.454 282.576 753.933 285.597 759.212 282.319 C 758.703 277.036 754.259 275.76 750.212 277.319 Z"/>
  <path style="fill:#fdf6f2; stroke:none;" d="M 534.212 278.319 C 535.015 286.158 539.455 294.458 543.212 301.319 C 546.56 295.852 539.147 283.477 536.212 278.319 L 534.212 278.319 Z"/>
  <path style="fill:#fdf6f2; stroke:none;" d="M 577.212 289.319 C 577.246 291.656 577.31 291.985 579.212 293.319 C 578.701 291.367 578.479 290.862 577.212 289.319 Z"/>
  <path style="fill:#fdf6f2; stroke:none;" d="M 607.212 301.319 C 606.315 298.487 604.974 294.144 601.852 292.981 C 599.817 292.223 597.255 293.737 597.964 296.1 C 598.515 297.939 600.636 298.717 602.207 299.429 C 603.849 300.174 605.506 300.75 607.212 301.319 Z"/>
  <path style="fill:#fdf6f2; stroke:none;" d="M 403.212 407.319 C 410.464 407.379 417.527 408.894 424.122 411.974 C 428.831 414.173 432.607 417.594 436.172 421.32 C 444.92 430.464 449.335 443.732 446.833 456.319 C 441.747 481.911 410.573 498.798 387.212 485.169 C 381.308 481.725 376.159 476.88 372.212 471.319 C 371.976 475.998 377.175 480.665 380.498 483.65 C 391.453 493.49 406.111 496.816 420.211 492.548 C 435.539 487.908 442.164 473.052 455.212 465.687 C 465.092 460.111 471.841 470.754 473.974 479.319 C 475.21 484.287 475.989 489.354 477.212 494.319 L 479.212 494.319 C 482.932 488.398 484.041 482.052 485.562 475.319 C 487.972 464.65 489.409 453.068 486.603 442.319 C 481.757 423.751 465.402 411.715 449.042 403.973 C 438.957 399.201 426.051 399 415.212 400.27 C 410.085 400.87 404.215 401.524 403.212 407.319 Z"/>
  <path style="fill:#fdf6f2; stroke:none;" d="M 381.212 475.319 C 377.34 468.045 373.586 461.811 373.252 453.319 C 372.438 432.596 390.02 415.565 410.212 414.528 C 417.316 414.163 423.761 418.011 430.212 420.319 C 426.826 416.547 422.921 414.942 418.212 413.27 C 403.072 407.894 386.082 413.178 376.317 425.895 C 365.647 439.79 366.538 464.486 381.212 475.319 Z"/>
  <path style="fill:#fdf6f2; stroke:none;" d="M 465.212 516.319 C 461.416 517.755 454.73 520.271 452.387 523.737 C 450.311 526.81 450.483 531.763 450.057 535.319 L 447.057 559.319 C 446.533 563.694 443.222 573.835 446.24 577.577 C 448.446 580.312 455.931 580.095 457.612 576.885 C 460.189 571.968 459.259 563.76 459.927 558.319 L 461.927 541.319 C 462.947 533.045 464.855 524.639 465.212 516.319 Z"/>
  <path style="fill:#fdf6f2; stroke:none;" d="M 726.468 278.54 C 726.969 282.687 728.152 283.485 732.876 282.429 C 732.552 277.93 729.589 276.087 726.468 278.54 Z"/>
  <path style="fill:#fdf6f2; stroke:none;" d="M 626.507 262.956 C 627.008 267.103 628.191 267.901 632.915 266.845 C 632.591 262.346 629.628 260.503 626.507 262.956 Z"/>
</svg>